<svg xmlns="http://www.w3.org/2000/svg" width="32" height="42" viewBox="0 0 32 42" fill="none">
  <path d="M31.1943 39.7499L31.1943 2.24995C31.1931 1.87028 31.0884 1.49812 30.8914 1.17354C30.6944 0.848956 30.4127 0.584239 30.0765 0.407874C29.7402 0.231513 29.3623 0.150187 28.9833 0.172652C28.6043 0.195117 28.2386 0.320521 27.9255 0.535365L0.842186 19.2854C-0.28073 20.0624 -0.28073 21.9333 0.842187 22.7124L27.9255 41.4624C28.2379 41.6795 28.6038 41.8067 28.9834 41.8304C29.3631 41.8541 29.7419 41.7733 30.0789 41.5968C30.4158 41.4203 30.6979 41.1548 30.8946 40.8292C31.0912 40.5036 31.1949 40.1303 31.1943 39.7499Z" fill="#403D3D"/>
</svg>