<svg xmlns="http://www.w3.org/2000/svg" width="32" height="42" viewBox="0 0 32 42" fill="none">
<path d="M3.72358e-06 2.08453L2.0844e-06 39.5845C0.00119225 39.9642 0.105906 40.3363 0.302872 40.6609C0.499838 40.9855 0.781595 41.2502 1.11782 41.4266C1.45404 41.603 1.832 41.6843 2.21101 41.6618C2.59001 41.6394 2.95572 41.5139 3.26875 41.2991L30.3521 22.5491C31.475 21.772 31.475 19.9012 30.3521 19.122L3.26875 0.372027C2.95637 0.154996 2.59048 0.0277235 2.21085 0.00403816C1.83121 -0.0196472 1.45234 0.0611604 1.1154 0.237681C0.778469 0.414202 0.496349 0.679685 0.299704 1.00529C0.103056 1.33089 -0.000597075 1.70415 3.72358e-06 2.08453Z" fill="#403D3D"/>
</svg>